<svg xmlns="http://www.w3.org/2000/svg" viewBox="0 0 279 311">
    <path fill="#90E7FD" d="M265.902 157.98c0 70.76-57.26 128.122-127.897 128.122-70.636 0-127.898-57.362-127.898-128.12 0-70.76 57.262-128.122 127.898-128.122s127.897 57.362 127.897 128.12" opacity=".542"/>
    <path fill="#0C2B2F" d="M138.005 33.622c-68.453 0-124.143 55.788-124.143 124.36 0 68.57 55.69 124.358 124.143 124.358 68.452 0 124.143-55.788 124.143-124.358 0-68.572-55.69-124.36-124.143-124.36m0 256.24c-72.593 0-131.652-59.16-131.652-131.88S65.413 26.1 138.005 26.1c72.592 0 131.652 59.16 131.652 131.88s-59.06 131.88-131.652 131.88"/>
    <path fill="#0C2B2F" d="M96.618 99.978c1.934-.507 46.072-30.917 46.072-30.917l-.773 13.19 38.686-22.82-21.663 26.62 17.795-4.56-15.475 15.98 26.693-12.17-12.29 17.87-33.76-13.79-43.086 13.8-2.2-3.18z"/>
    <path fill="#88E7FF" d="M271.525 4.675L257.99 19.957c-2.29 54.056-42.43 98.28-94.56 106.773l-15.37 17.356c4.53.554 9.13.872 13.807.872 62.38 0 112.95-50.658 112.95-113.147 0-9.35-1.155-18.44-3.292-27.13"/>
    <path fill="#FFF" d="M257.99 19.957L163.43 126.73c52.13-8.494 92.27-52.718 94.56-106.773"/>
    <path fill="#B0EEFE" d="M8.176 4.675L21.71 19.957c2.292 54.056 42.43 98.28 94.56 106.773l15.372 17.356c-4.53.554-9.13.872-13.808.872-62.38 0-112.95-50.658-112.95-113.147 0-9.35 1.155-18.44 3.292-27.13"/>
    <path fill="#FFF" d="M21.71 19.957l94.56 106.773c-52.13-8.494-92.268-52.718-94.56-106.773"/>
    <path fill="#B0EEFE" d="M137.725 92.305l.28 154.582c-42.613 0-77.156-34.605-77.156-77.292 0-42.686 34.54-77.29 77.15-77.29"/>
    <path fill="#88E7FF" d="M137.725 92.305l.28 154.582c42.612 0 77.156-34.605 77.156-77.292 0-42.686-34.54-77.29-77.15-77.29"/>
    <path fill="#EBE2DF" d="M138.005 290.428c-20.173 0-38.352-8.506-51.197-22.117 6.415 22.28 26.9 38.57 51.197 38.57 24.297 0 44.782-16.29 51.197-38.56-12.845 13.61-31.025 22.12-51.197 22.12"/>
    <path fill="#FFF" d="M138.005 306.878c24.297 0 44.782-16.294 51.197-38.566-12.845 13.61-31.025 20.505-51.197 20.505"/>
    <path fill="#C6F3FE" d="M138.005 288.447c20.172 0 38.352-6.525 51.197-20.136 1.355-4.7 2.097-9.67 2.097-14.81 0-29.48-23.87-53.38-53.3-53.38"/>
    <path fill="#FFF" d="M138.005 289.556c-20.173 0-38.352-7.634-51.197-21.245 6.415 22.28 26.9 38.57 51.197 38.57"/>
    <path fill="#FFF" d="M138.005 288.57c-20.173 0-38.352-6.648-51.197-20.258-1.355-4.707-2.097-9.676-2.097-14.82 0-29.485 23.87-53.387 53.3-53.387"/>
    <path fill="#0C2B2F" d="M192.842 235.843c0-6.984-5.65-12.645-12.623-12.645-5.09 0-9.46 3.016-11.46 7.354 2.09-2.163 5.02-3.512 8.27-3.512 6.37 0 11.53 5.172 11.53 11.552 0 3.873-1.91 7.292-4.83 9.39 5.25-1.528 9.1-6.38 9.1-12.14"/>
    <path fill="#0C2B2F" d="M177.706 225.276c7.027.35 12.638 6.19 12.638 13.316 0 .43-.02.858-.063 1.284.51-1.26.79-2.625.79-4.032 0-5.992-4.86-10.867-10.84-10.867-.85 0-1.7.102-2.51.3m6.03 24.483c-.66 0-1.29-.378-1.59-1.003-.38-.78-.14-1.72.56-2.224 2.56-1.837 4.09-4.805 4.09-7.94 0-5.39-4.37-9.775-9.75-9.775-2.65 0-5.14 1.056-6.99 2.974-.6.624-1.56.718-2.28.228-.71-.49-.97-1.427-.61-2.215 2.36-5.095 7.48-8.388 13.07-8.388 7.94 0 14.4 6.472 14.4 14.427 0 6.376-4.27 12.07-10.39 13.845-.16.04-.33.07-.49.07"/>
    <path fill="#0C2B2F" d="M183.145 238.053c0 2.64-2.137 4.78-4.772 4.78-2.637 0-4.773-2.14-4.773-4.78s2.136-4.78 4.773-4.78c2.635 0 4.772 2.14 4.772 4.78m-99.69-2.21c0-6.984 5.652-12.645 12.624-12.645 5.08 0 9.45 3.016 11.45 7.354-2.1-2.163-5.03-3.512-8.27-3.512-6.37 0-11.53 5.172-11.53 11.552 0 3.873 1.91 7.292 4.83 9.39-5.26-1.528-9.11-6.38-9.11-12.14"/>
    <path fill="#0C2B2F" d="M96.078 224.977c-5.98 0-10.846 4.875-10.846 10.867 0 1.407.277 2.773.785 4.03-.043-.424-.063-.85-.063-1.282 0-7.127 5.61-12.966 12.638-13.316-.815-.197-1.657-.3-2.514-.3M92.56 249.76c-.164 0-.33-.022-.495-.07-6.115-1.777-10.386-7.47-10.386-13.846 0-7.955 6.46-14.427 14.39-14.427 5.59 0 10.71 3.293 13.07 8.388.36.788.1 1.724-.61 2.215-.72.488-1.68.394-2.29-.228-1.86-1.917-4.34-2.973-7-2.973-5.38 0-9.76 4.38-9.76 9.77 0 3.13 1.53 6.1 4.09 7.94.7.5.94 1.44.56 2.22-.3.62-.93 1-1.6 1"/>
    <path fill="#0C2B2F" d="M93.152 238.053c0 2.64 2.138 4.78 4.773 4.78 2.636 0 4.772-2.14 4.772-4.78s-2.136-4.78-4.772-4.78c-2.635 0-4.773 2.14-4.773 4.78M194.738 120.31c-1.314 0-2.578-.733-3.195-1.995-.863-1.767-.133-3.9 1.63-4.763 36.09-17.686 59.566-53.61 61.267-93.747.082-1.912 1.654-3.408 3.548-3.408.05 0 .102 0 .154.003 1.96.084 3.482 1.744 3.398 3.708-1.81 42.748-26.81 81.004-65.243 99.84-.5.245-1.035.363-1.56.363M82.23 118.93c-.555 0-1.12-.13-1.646-.407C43.837 99.25 19.918 61.54 18.16 20.11c-.084-1.965 1.44-3.625 3.398-3.71 2.016-.123 3.62 1.44 3.702 3.405 1.65 38.903 24.112 74.31 58.62 92.407 1.74.914 2.412 3.064 1.5 4.806-.634 1.216-1.87 1.91-3.15 1.91"/>
    <path fill="#FFF" d="M163.213 165.346c.72-.22 1.485-.342 2.277-.342 4.29 0 7.765 3.483 7.765 7.78 0 4.295-3.476 7.778-7.765 7.778-4.288 0-7.765-3.483-7.765-7.78 0-.726.107-1.426.293-2.092.643.516 1.448.838 2.338.838 2.074 0 3.757-1.685 3.757-3.764 0-.926-.347-1.763-.9-2.418m-13.44 7.363c0 8.65 7.004 15.67 15.644 15.67s15.645-7.02 15.645-15.67c0-6.13-3.516-11.42-8.628-14H158.4c-5.112 2.58-8.628 7.87-8.628 13.99"/>
    <path fill="#0C2B2F" d="M160.356 171.528c-.89 0-1.695-.322-2.338-.838-.186.666-.292 1.366-.292 2.092 0 4.297 3.476 7.78 7.765 7.78 4.29 0 7.77-3.483 7.77-7.78 0-4.296-3.47-7.778-7.76-7.778-.79 0-1.55.12-2.28.34.56.658.9 1.494.9 2.42 0 2.078-1.68 3.764-3.75 3.764"/>
    <path fill="#FFF" d="M108.132 165.346c.72-.22 1.485-.342 2.277-.342 4.28 0 7.76 3.483 7.76 7.78 0 4.295-3.48 7.778-7.77 7.778s-7.77-3.483-7.77-7.78c0-.726.1-1.426.29-2.092.64.516 1.45.838 2.34.838 2.07 0 3.75-1.685 3.75-3.764 0-.926-.35-1.763-.9-2.418m-13.44 7.363c0 8.65 7 15.67 15.64 15.67s15.64-7.02 15.64-15.67c0-6.13-3.52-11.42-8.63-14H103.3c-5.114 2.58-8.63 7.87-8.63 13.99"/>
    <path fill="#0C2B2F" d="M105.275 171.528c-.888 0-1.695-.322-2.338-.838-.186.666-.292 1.366-.292 2.092 0 4.297 3.476 7.78 7.765 7.78 4.288 0 7.764-3.483 7.764-7.78 0-4.296-3.476-7.778-7.764-7.778-.793 0-1.557.12-2.278.34.553.658.9 1.494.9 2.42 0 2.078-1.683 3.764-3.757 3.764m19.455-8.296H95.707c-1.963 0-3.553-1.593-3.553-3.56 0-1.965 1.59-3.558 3.553-3.558h29.02c1.963 0 3.554 1.593 3.554 3.56 0 1.965-1.59 3.558-3.55 3.558m55.68 0h-29.02c-1.96 0-3.55-1.593-3.55-3.56 0-1.965 1.59-3.558 3.56-3.558h29.03c1.96 0 3.56 1.593 3.56 3.56 0 1.965-1.59 3.558-3.55 3.558M93.29 229.41c-.636 0-1.283-.17-1.863-.53-1.67-1.034-2.185-3.227-1.154-4.9 10.46-16.957 28.57-27.08 48.444-27.08 18.935 0 36.576 9.397 47.186 25.136 1.095 1.63.67 3.842-.96 4.943-1.623 1.09-3.83.67-4.93-.96-9.29-13.78-24.726-22-41.3-22-17.39 0-33.24 8.86-42.4 23.7-.67 1.09-1.83 1.69-3.02 1.69m98.89 40.4c.05-.18.11-.34.16-.52 1.483-5.15 2.235-10.47 2.235-15.81 0-3.58-.346-7.2-1.028-10.77-.37-1.93-2.226-3.2-4.16-2.83-1.926.37-3.19 2.23-2.82 4.16.597 3.12.9 6.29.9 9.42 0 4.67-.657 9.32-1.956 13.83-.64 2.21-1.43 4.342-2.35 6.402.69-.27 1.386-.51 2.07-.79 2.345-.97 4.66-2.015 6.944-3.12m-99.94 3.793c-.895-2.028-1.667-4.12-2.29-6.29-1.3-4.51-1.96-9.164-1.96-13.833 0-3.25.322-6.53.955-9.732.38-1.93-.87-3.8-2.8-4.186-1.92-.374-3.794.876-4.174 2.806-.73 3.66-1.09 7.4-1.09 11.11 0 5.337.75 10.656 2.23 15.807l.09.3c2.52 1.247 5.07 2.424 7.68 3.496.44.18.9.332 1.35.51"/>
    <path fill="#0C2B2F" d="M274.695 3.823c-.315-1.283-1.317-2.287-2.598-2.604-1.28-.32-2.634.1-3.51 1.09L180.92 101.3c-12.926-8.224-27.79-12.556-43.196-12.556-14.395 0-28.435 3.83-40.796 11.1L10.553 2.31c-.875-.988-2.23-1.41-3.51-1.09-1.28.316-2.282 1.32-2.597 2.604C2.192 12.994 1.05 22.41 1.05 31.81c0 43.64 24.77 84.024 63.402 103.89-4.937 10.655-7.436 22.04-7.436 33.896 0 23.046 9.873 45.065 27.09 60.41.677.604 1.52.9 2.36.9.98 0 1.955-.403 2.657-1.193 1.305-1.47 1.173-3.72-.293-5.026-15.7-13.995-24.708-34.075-24.708-55.09 0-11.922 2.772-23.32 8.237-33.878.44-.86.52-1.86.21-2.78-.31-.92-.98-1.67-1.85-2.08C32.71 112.8 8.15 73.92 8.15 31.81c0-6.526.59-13.06 1.75-19.506L93.59 106.8c1.16 1.31 3.098 1.582 4.572.637 11.828-7.57 25.508-11.572 39.563-11.572 15.01 0 29.457 4.51 41.783 13.043 1.48 1.022 3.485.78 4.68-.567l85.05-96.03c1.16 6.44 1.747 12.98 1.747 19.51 0 43.48-25.7 82.88-65.473 100.37-.888.39-1.578 1.13-1.91 2.04-.332.91-.277 1.92.153 2.8 5.025 10.2 7.572 21.16 7.572 32.58 0 20.94-8.95 40.98-24.554 54.96-1.462 1.31-1.586 3.56-.28 5.03 1.31 1.47 3.557 1.59 5.02.28 17.11-15.33 26.92-37.3 26.92-60.26 0-11.29-2.27-22.18-6.76-32.41 40.47-19.32 66.42-60.28 66.42-105.37 0-9.4-1.14-18.82-3.396-27.99m-136.97 299.49c-15.73 0-30.24-7.55-39.477-19.58-3.442-1.09-6.855-2.3-10.218-3.69-.25-.1-.49-.21-.738-.32 9.644 18.51 29.054 30.71 50.432 30.71 21.314 0 40.676-12.12 50.35-30.54-3.604 1.49-7.257 2.79-10.946 3.94-9.24 11.98-23.718 19.49-39.405 19.49m-79.793-50.31c-1.584-1.34-3.954-1.144-5.292.446-1.338 1.585-1.14 3.96.443 5.3 10.322 8.735 21.832 15.78 34.21 20.97-1.666-3.2-3.043-6.587-4.086-10.13-9.033-4.47-17.512-10.01-25.275-16.585m155.06 4.08c-6.523 4.91-13.5 9.168-20.816 12.72-1.053 3.527-2.43 6.9-4.1 10.08l.01-.004c10.453-4.305 20.35-9.95 29.416-16.774 1.658-1.246 1.992-3.604.747-5.265-1.25-1.67-3.61-2-5.26-.75"/>
    <path fill="#0C2B2F" d="M185.23 272.935c-.685.282-1.38.524-2.068.794-14.437 5.65-29.615 8.57-45.166 8.61-15.748.03-31.18-2.92-45.762-8.73-.447-.18-.9-.34-1.347-.52-2.604-1.07-5.16-2.25-7.68-3.5 1.044 3.54 2.42 6.93 4.087 10.13.246.1.487.22.735.32 3.36 1.38 6.77 2.59 10.21 3.69 12.73 4.04 25.95 6.12 39.47 6.12h.29c13.36-.03 26.47-2.07 39.11-6.03 3.69-1.16 7.34-2.46 10.94-3.94 1.67-3.19 3.05-6.56 4.1-10.09-2.29 1.11-4.6 2.15-6.95 3.12"/>
</svg>
