<svg xmlns="http://www.w3.org/2000/svg" viewBox="24 20 23.8 14">
  <path fill="#ACEFFF" opacity=".452" d="M47.742 21.01v-.18c0-.026-.026-.052-.026-.104 0-.026-.026-.078-.026-.104 0-.026-.025-.052-.05-.078-.027-.025-.027-.077-.053-.103v-.023l-.052-.052-.077-.078c-.026-.026-.052-.052-.077-.052-.023-.026-.05-.052-.075-.052-.026-.024-.05-.024-.077-.05-.026-.026-.052-.026-.078-.052-.026 0-.078-.025-.104-.025-.026 0-.05-.026-.103-.026H24.85c-.026 0-.052.025-.104.025-.025 0-.077.026-.103.026-.026 0-.05.027-.077.053-.026.026-.052.026-.078.05-.025.027-.05.027-.077.053-.024.026-.05.052-.076.052l-.077.078-.052.052v.026c-.025.027-.05.08-.05.104-.027.026-.027.052-.053.078-.025.026-.025.052-.025.104 0 .025-.025.05-.025.103v12.134c0 .57.464 1.037 1.032 1.037H46.76c.57 0 1.034-.467 1.034-1.037l-.052-11.952c0 .027 0 0 0 0zm-4.155 1.064L35.87 27.83l-7.715-5.756h15.432zm-17.522 9.852V23.11l9.187 6.846c.18.13.387.207.62.207.23 0 .438-.078.618-.207l9.187-6.845v8.818H26.065z" />
</svg>
